<?xml version="1.0" encoding="UTF-8"?>
<svg version="1.1" xmlns="http://www.w3.org/2000/svg" width="413" height="411">
<path d="M0 0 C2.43648008 2.2487303 4.74499415 4.57103655 7 7 C8.2065625 8.2065625 8.2065625 8.2065625 9.4375 9.4375 C10.283125 10.283125 11.12875 11.12875 12 12 C12.56074219 12.5259375 13.12148438 13.051875 13.69921875 13.59375 C46.98314072 45.45989842 67.81856778 94.36290328 71 140 C70.34 140 69.68 140 69 140 C69.0721875 141.16273438 69.144375 142.32546875 69.21875 143.5234375 C72.05603368 191.25419552 60.25582308 234.85661207 32 274 C31.25363281 275.06347656 30.50726563 276.12695312 29.73828125 277.22265625 C-2.7563102 321.90439724 -53.15388141 349.09296255 -106.984375 358.046875 C-160.48197788 366.13660261 -214.516213 351.08034059 -258.25512695 320.02490234 C-303.82448307 286.40823067 -331.91288986 237.07330733 -340.64013672 181.49145508 C-343.67781588 160.46057595 -343.37719059 137.81217336 -339 117 C-338.7525 115.80793945 -338.505 114.61587891 -338.25 113.38769531 C-334.31081654 94.79034752 -328.84223033 77.92971315 -320 61 C-319.58492188 60.17870605 -319.16984375 59.35741211 -318.7421875 58.51123047 C-313.10092973 47.37657047 -306.31221364 37.54189447 -298.47949219 27.83789062 C-297.18906376 26.23486336 -295.92427121 24.61126651 -294.6640625 22.984375 C-284.66839719 10.27613138 -272.96034619 -0.41239674 -260 -10 C-259.43313477 -10.42764648 -258.86626953 -10.85529297 -258.28222656 -11.29589844 C-231.41655365 -31.54093775 -200.89043281 -43.01720457 -168 -49 C-167.29762207 -49.13422363 -166.59524414 -49.26844727 -165.87158203 -49.40673828 C-107.12215485 -60.32722004 -44.5072559 -37.85886912 0 0 Z " fill="#0F181D" transform="translate(342,51)"/>
<path d="M0 0 C5.28 0 10.56 0 16 0 C16.48828125 2.27864583 16.9765625 4.55729167 17.46484375 6.8359375 C17.92330693 9.029463 17.92330693 9.029463 19 11 C22.35683493 11.99179214 24.39673023 12.19194947 27.75 11.125 C31.19277983 7.87348572 31.2632361 4.621519 32 0 C36.29 0 40.58 0 45 0 C45.14695313 1.68222656 45.29390625 3.36445313 45.4453125 5.09765625 C49.55231443 48.54089278 65.67338837 87.4135412 99.10546875 116.63671875 C127.76089832 140.0328522 161.99925011 153.41070605 199 155 C199.82628906 155.04125 200.65257812 155.0825 201.50390625 155.125 C243.11055541 156.16679403 285.93015495 140.83618691 316.50634766 112.50927734 C318.739531 110.25273281 320.72974932 107.81068147 322.7097168 105.33129883 C323.34840698 104.67230591 323.34840698 104.67230591 324 104 C324.66 104 325.32 104 326 104 C326.25394531 103.43539062 326.50789063 102.87078125 326.76953125 102.2890625 C328.16032303 99.70174826 329.81299273 97.63619345 331.6875 95.375 C338.43332018 87.04336314 344.08207203 78.52398733 349 69 C349.31614258 68.40413086 349.63228516 67.80826172 349.95800781 67.19433594 C361.2760533 45.84956558 365.62265711 23.86727141 368 0 C372.29 0 376.58 0 381 0 C381.42317708 2.24609375 381.84635417 4.4921875 382.26953125 6.73828125 C383.09555713 9.2958694 383.83728638 10.41777721 386 12 C389.66988161 11.9344664 392.04969959 11.82359369 394.875 9.375 C396.44256264 6.36852841 396.44256264 6.36852841 397 0 C401.95 0 406.9 0 412 0 C413.33271292 41.31410059 398.02016698 81.72435584 374 115 C373.25363281 116.06347656 372.50726563 117.12695312 371.73828125 118.22265625 C339.2436898 162.90439724 288.84611859 190.09296255 235.015625 199.046875 C181.51802212 207.13660261 127.483787 192.08034059 83.74487305 161.02490234 C38.1293275 127.37415657 10.19692596 78.11608964 1.3605957 22.52734375 C0.28352265 14.97835238 -0.10886972 7.62088017 0 0 Z " fill="#BC9E7C" transform="translate(0,210)"/>
<path d="M0 0 C2.43648008 2.2487303 4.74499415 4.57103655 7 7 C8.2065625 8.2065625 8.2065625 8.2065625 9.4375 9.4375 C10.283125 10.283125 11.12875 11.12875 12 12 C12.56074219 12.5259375 13.12148438 13.051875 13.69921875 13.59375 C47.17085524 45.63961698 67.42513052 94.24167065 71 140 C65.72 140 60.44 140 55 140 C54.54427083 137.4609375 54.08854167 134.921875 53.6328125 132.3828125 C53.16955297 129.83494012 53.16955297 129.83494012 51 128 C45.67421373 127.33213718 45.67421373 127.33213718 41.0625 129.4375 C39.47797186 133.25900904 39.30310578 136.87776143 39 141 C34.38 140.67 29.76 140.34 25 140 C24.85304688 138.87207031 24.70609375 137.74414062 24.5546875 136.58203125 C21.99534149 118.16147511 17.21576964 100.71484168 9 84 C8.45601563 82.88367188 7.91203125 81.76734375 7.3515625 80.6171875 C-12.03938442 42.83670406 -46.58829709 15.87368626 -86.50390625 2.39453125 C-93.57499963 0.1394258 -100.72072403 -1.57352972 -108 -3 C-109.07507813 -3.22558594 -110.15015625 -3.45117188 -111.2578125 -3.68359375 C-149.34561867 -10.46827667 -191.30046646 0.09559079 -223.5 21 C-225.34641996 22.31515103 -227.17993008 23.64861761 -229 25 C-229.99386719 25.69996094 -230.98773438 26.39992188 -232.01171875 27.12109375 C-265.6775172 51.67683604 -287.87963816 89.1101769 -295 130 C-295.24479316 131.87058924 -295.46388745 133.74535362 -295.625 135.625 C-295.810625 137.790625 -295.810625 137.790625 -296 140 C-300.62 140 -305.24 140 -310 140 C-310.45572917 137.16796875 -310.91145833 134.3359375 -311.3671875 131.50390625 C-311.57601563 130.67761719 -311.78484375 129.85132813 -312 129 C-315.04983996 127.47508002 -317.6423369 127.76437452 -321 128 C-323.90309595 130.15324415 -324.53176043 132.20703611 -325.1875 135.6875 C-325.455625 137.110625 -325.72375 138.53375 -326 140 C-331.28 140 -336.56 140 -342 140 C-341.10519388 128.66578919 -339.25629536 117.8166677 -336.6875 106.75 C-336.40382568 105.50847168 -336.12015137 104.26694336 -335.82788086 102.98779297 C-332.68217585 89.77390903 -328.0606133 77.5134829 -322.125 65.3125 C-321.63386719 64.27544922 -321.14273437 63.23839844 -320.63671875 62.16992188 C-310.84850138 41.86890481 -296.78783672 23.96187216 -281 8 C-280.42757568 7.41001221 -279.85515137 6.82002441 -279.26538086 6.2121582 C-275.52780316 2.39704812 -271.66871434 -1.05649152 -267.4375 -4.3125 C-266.83599121 -4.77833496 -266.23448242 -5.24416992 -265.61474609 -5.72412109 C-263.75013511 -7.15884779 -261.87710386 -8.58166685 -260 -10 C-259.4229834 -10.43779785 -258.8459668 -10.8755957 -258.25146484 -11.32666016 C-231.39337296 -31.55274536 -200.8723831 -43.02048783 -168 -49 C-167.29762207 -49.13422363 -166.59524414 -49.26844727 -165.87158203 -49.40673828 C-107.12215485 -60.32722004 -44.5072559 -37.85886912 0 0 Z " fill="#BB9D7B" transform="translate(342,51)"/>
<path d="M0 0 C1.48306641 -0.03673828 1.48306641 -0.03673828 2.99609375 -0.07421875 C10.18341691 -0.10339598 10.18341691 -0.10339598 13.5234375 2.20703125 C15.36853371 5.16665089 15.45706249 6.95538286 14.875 10.375 C11.9240386 13.23179077 9.71447604 13.76920128 5.671875 13.88671875 C4.6921875 13.92216797 3.7125 13.95761719 2.703125 13.99414062 C1.68734375 14.01669922 0.6715625 14.03925781 -0.375 14.0625 C-1.40625 14.09666016 -2.4375 14.13082031 -3.5 14.16601562 C-6.04155812 14.24838093 -8.58277626 14.31756834 -11.125 14.375 C-13.39866114 20.78342393 -13.48899185 26.93109501 -13.625 33.6875 C-14.05311215 54.72795296 -19.68412291 70.42823098 -35.125 85.375 C-35.72441406 85.96023438 -36.32382812 86.54546875 -36.94140625 87.1484375 C-46.65951669 96.06214059 -57.65640497 100.77233597 -70.125 104.375 C-70.93710937 104.6225 -71.74921875 104.87 -72.5859375 105.125 C-79.12831384 106.87611932 -86.44384575 107.38833702 -93.125 106.375 C-95.04296875 104.51171875 -95.04296875 104.51171875 -96.125 102.375 C-96.05327773 99.43438704 -95.70185726 97.9795464 -93.66015625 95.83984375 C-89.86520255 93.64707389 -85.91151185 93.2190329 -81.625 92.5 C-65.52539812 89.52629863 -51.74903419 83.13142638 -40.125 71.375 C-39.795 70.715 -39.465 70.055 -39.125 69.375 C-38.465 69.375 -37.805 69.375 -37.125 69.375 C-36.75375 68.3540625 -36.75375 68.3540625 -36.375 67.3125 C-35.125 64.375 -35.125 64.375 -33.1875 61.3125 C-28.76436255 53.70867944 -27.69289758 45.01704849 -28.125 36.375 C-34.57589104 39.55961709 -39.98445963 42.63189571 -44.78515625 48.0546875 C-46.125 49.375 -46.125 49.375 -48.125 49.375 C-48.125 50.035 -48.125 50.695 -48.125 51.375 C-52.59558824 55.375 -52.59558824 55.375 -55.125 55.375 C-55.62 56.365 -55.62 56.365 -56.125 57.375 C-56.62 55.395 -56.62 55.395 -57.125 53.375 C-57.785 53.375 -58.445 53.375 -59.125 53.375 C-58.795 51.725 -58.465 50.075 -58.125 48.375 C-59.115 48.87 -59.115 48.87 -60.125 49.375 C-59.815625 48.6325 -59.50625 47.89 -59.1875 47.125 C-58.08305272 44.5630267 -58.08305272 44.5630267 -57.83984375 42.48046875 C-55.60182683 35.88871401 -46.49253176 30.35934452 -40.5078125 27.23828125 C-36.16612554 25.66530942 -31.70988888 25.46926874 -27.125 25.375 C-27.0321875 23.456875 -27.0321875 23.456875 -26.9375 21.5 C-26.19728753 14.80636437 -23.2828616 9.15933755 -19.1875 3.875 C-13.41483578 -0.32330125 -6.83362562 0.0089798 0 0 Z " fill="#6B7B5E" transform="translate(330.125,216.625)"/>
<path d="M0 0 C0.97259766 -0.02449219 1.94519531 -0.04898438 2.94726562 -0.07421875 C10.80917978 -0.10615611 15.09405224 1.42543353 20.875 6.9375 C24.88697542 12.13181255 27.1875 18.87524864 27.1875 25.375 C28.8890625 25.25125 28.8890625 25.25125 30.625 25.125 C42.47721157 25.22896677 51.46323834 34.57368841 59.375 42.4375 C60.31797647 43.41139373 61.25791929 44.38831194 62.1875 45.375 C61.375 47.8125 61.375 47.8125 60.1875 50.375 C58.7025 50.87 58.7025 50.87 57.1875 51.375 C55.97867904 53.37516466 55.97867904 53.37516466 55.1875 55.375 C51.27966602 53.77676057 48.60648678 51.07636089 45.625 48.1875 C40.26120746 43.11027769 34.59976212 39.07341103 28.1875 35.375 C27.45918128 49.56372775 31.905131 60.41488411 40.5625 71.6875 C54.48310953 85.93955261 73.55237332 92.97249095 93.1875 94.375 C93.1875 95.035 93.1875 95.695 93.1875 96.375 C93.8475 96.375 94.5075 96.375 95.1875 96.375 C96.4375 103 96.4375 103 94.1875 106.375 C89.54790556 108.09173798 84.86779999 106.97843412 80.125 106.1875 C78.85245361 105.97722168 78.85245361 105.97722168 77.55419922 105.76269531 C55.84500684 101.98682436 37.94759712 91.03465935 24.69140625 73.3828125 C15.65258637 59.81050353 13.92476872 45.43712892 13.70898438 29.54101562 C13.50192791 21.2739632 13.50192791 21.2739632 9.1875 14.375 C7.74637148 14.26661221 6.3005284 14.21926699 4.85546875 14.19921875 C3.97439453 14.17537109 3.09332031 14.15152344 2.18554688 14.12695312 C0.32379498 14.08425833 -1.53825298 14.05285975 -3.40039062 14.03320312 C-10.21144083 13.81989274 -10.21144083 13.81989274 -13.3984375 11.4609375 C-14.84516953 9.32680794 -15.56469564 7.93564509 -15.8125 5.375 C-14.8125 2.375 -14.8125 2.375 -13.05981445 1.20849609 C-8.84632032 -0.35422731 -4.44512649 0.00582204 0 0 Z " fill="#6B7B5E" transform="translate(80.8125,216.625)"/>
<path d="M0 0 C2.05903355 -0.01664591 4.11800735 -0.04404752 6.17675781 -0.08203125 C9.15923733 -0.13665977 12.1403795 -0.15864019 15.12329102 -0.17333984 C16.04313278 -0.19600922 16.96297455 -0.21867859 17.91069031 -0.24203491 C24.26913496 -0.22091435 24.26913496 -0.22091435 27.47998047 2.71875 C29.04091418 5.62591149 29.40477976 7.10770021 28.89282227 10.35009766 C28.23282227 11.34009766 27.57282227 12.33009766 26.89282227 13.35009766 C24.00366211 13.7824707 24.00366211 13.7824707 20.35375977 13.86181641 C19.05180664 13.89726562 17.74985352 13.93271484 16.40844727 13.96923828 C15.02824417 13.99233997 13.6480357 14.0151223 12.26782227 14.03759766 C10.87976875 14.07076211 9.4917462 14.10525096 8.10375977 14.14111328 C4.7001952 14.22383881 1.29689637 14.29291022 -2.10717773 14.35009766 C-2.24446289 15.9613855 -2.24446289 15.9613855 -2.38452148 17.60522461 C-4.3002933 38.5858857 -13.56157488 52.14330439 -29.12280273 66.16650391 C-31.10717773 67.35009766 -31.10717773 67.35009766 -33.12280273 67.29150391 C-35.71029506 66.0639731 -37.03965172 64.48960032 -38.85717773 62.28759766 C-39.47077148 61.55412109 -40.08436523 60.82064453 -40.71655273 60.06494141 C-41.17545898 59.49904297 -41.63436523 58.93314453 -42.10717773 58.35009766 C-39.2653187 55.41943053 -36.36691131 52.71644144 -33.23217773 50.10009766 C-20.84843783 39.2818494 -17.6617645 26.94855928 -15.10717773 11.35009766 C-23.56407369 13.92315323 -28.83789736 18.25993958 -35.10717773 24.35009766 C-36.74384783 25.8600905 -38.38922241 27.36072361 -40.04467773 28.85009766 C-40.75495117 29.49978516 -41.46522461 30.14947266 -42.19702148 30.81884766 C-44.10717773 32.35009766 -44.10717773 32.35009766 -47.10717773 33.35009766 C-47.65678373 24.92280568 -45.49061291 16.9640323 -40.10717773 10.35009766 C-28.42295659 -0.80302253 -15.23987406 0.09037188 0 0 Z " fill="#6B7B5E" transform="translate(316.107177734375,157.64990234375)"/>
<path d="M0 0 C10.88313913 -0.25634803 19.18071904 0.10242959 27.8046875 7.3515625 C34.79878843 14.12641261 38.20495392 21.87152229 38.5546875 31.6640625 C38.5134375 32.4890625 38.4721875 33.3140625 38.4296875 34.1640625 C32.12197015 30.10910134 26.73427801 25.46865301 21.4296875 20.1640625 C16.74315886 15.60450878 12.68513466 13.13946687 6.4296875 11.1640625 C8.56218291 30.3845803 14.32967265 41.10759436 28.4296875 54.1640625 C29.9146875 55.1540625 29.9146875 55.1540625 31.4296875 56.1640625 C31.9246875 58.1440625 31.9246875 58.1440625 32.4296875 60.1640625 C29.4596875 62.4740625 26.4896875 64.7840625 23.4296875 67.1640625 C18.13588687 64.51716219 14.44937573 60.39895392 10.4296875 56.1640625 C9.52669922 55.26880859 9.52669922 55.26880859 8.60546875 54.35546875 C-1.96463235 43.31030693 -6.89508369 28.2754751 -6.5703125 13.1640625 C-7.81119629 13.20333862 -7.81119629 13.20333862 -9.07714844 13.2434082 C-12.82467668 13.34733081 -16.571902 13.41237739 -20.3203125 13.4765625 C-21.62226562 13.51845703 -22.92421875 13.56035156 -24.265625 13.60351562 C-25.51601562 13.61962891 -26.76640625 13.63574219 -28.0546875 13.65234375 C-29.20678711 13.67852783 -30.35888672 13.70471191 -31.54589844 13.73168945 C-34.5703125 13.1640625 -34.5703125 13.1640625 -36.98144531 10.80151367 C-38.5703125 8.1640625 -38.5703125 8.1640625 -38.5078125 5.4765625 C-37.5703125 3.1640625 -37.5703125 3.1640625 -34.5703125 1.1640625 C-31.85327148 0.84521484 -31.85327148 0.84521484 -28.56640625 0.75 C-26.75523315 0.69150879 -26.75523315 0.69150879 -24.9074707 0.63183594 C-22.97713989 0.58591309 -22.97713989 0.58591309 -21.0078125 0.5390625 C-19.6983667 0.50329102 -18.3889209 0.46751953 -17.03979492 0.43066406 C-14.41891522 0.36282839 -11.7978938 0.30024512 -9.17675781 0.24316406 C-6.11718827 0.17605734 -3.05892637 0.09060937 0 0 Z " fill="#6B7B5E" transform="translate(103.5703125,157.8359375)"/>
<path d="M0 0 C5.3035228 2.70179463 9.09832298 6.29496895 11 12 C11.57439454 17.85882434 10.41252162 22.25767053 7 27 C6.14277344 27.59167969 5.28554687 28.18335937 4.40234375 28.79296875 C1.68262083 30.85559314 1.68262083 30.85559314 1.328125 34.3828125 C1.30234375 35.61773437 1.2765625 36.85265625 1.25 38.125 C1.05298013 44.89403974 1.05298013 44.89403974 0 47 C-5.95703125 47.390625 -5.95703125 47.390625 -8 47 C-10.44030101 44.73208229 -10.9791687 43.50481177 -11.1171875 40.16015625 C-11.03726563 39.13792969 -10.95734375 38.11570313 -10.875 37.0625 C-10.65623795 32.18256884 -10.65623795 32.18256884 -13.25 28.125 C-14.1575 27.42375 -15.065 26.7225 -16 26 C-19.56337027 21.7624786 -20.66179294 18.66266153 -20.37890625 13.2421875 C-19.63039511 8.81285352 -17.87246399 5.63961873 -14.4921875 2.6796875 C-9.94891487 -0.34211709 -5.33922743 -0.96456846 0 0 Z " fill="#9BC094" transform="translate(210,67)"/>
<path d="M0 0 C5.3424723 2.39524127 8.32025837 5.39989985 11.1171875 10.57421875 C12.57367856 15.79331172 12.72025497 20.21858336 10.1796875 25.01171875 C7.24220004 29.14007951 4.69524854 31.65236507 -0.1328125 33.26171875 C-6.10170531 33.79593979 -11.06874948 33.79478597 -16.1328125 30.26171875 C-20.48086051 25.7160322 -22.86466886 22.15767011 -23.4453125 15.88671875 C-23.09251628 11.79428264 -22.63179267 8.54866564 -20.1328125 5.26171875 C-13.91226473 0.11758635 -7.94696099 -2.75087111 0 0 Z " fill="#9BC094" transform="translate(126.1328125,106.73828125)"/>
<path d="M0 0 C1.585869 3.171738 1.37866445 6.63513822 1.5625 10.125 C1.60568359 10.87910156 1.64886719 11.63320312 1.69335938 12.41015625 C1.7994832 14.27321888 1.90025001 16.13658524 2 18 C3.05960937 17.97679688 4.11921875 17.95359375 5.2109375 17.9296875 C6.5989513 17.91093056 7.9869727 17.89273028 9.375 17.875 C10.42300781 17.84986328 10.42300781 17.84986328 11.4921875 17.82421875 C13.32897486 17.80655733 15.16601963 17.89696739 17 18 C19 20 19 20 19.4375 22.9375 C19 26 19 26 16.8984375 27.7109375 C13.3191553 29.30280155 11.05782429 29.11753603 7.1875 28.6875 C6.02605469 28.56761719 4.86460937 28.44773437 3.66796875 28.32421875 C2.78753906 28.21722656 1.90710938 28.11023438 1 28 C1.05220703 29.69769531 1.05220703 29.69769531 1.10546875 31.4296875 C1.13360336 32.91144353 1.16090387 34.39321556 1.1875 35.875 C1.21263672 36.62136719 1.23777344 37.36773437 1.26367188 38.13671875 C1.29296875 40.3046875 1.29296875 40.3046875 1 44 C-2 46 -2 46 -4.5625 45.875 C-7 45 -7 45 -8.14453125 43.3671875 C-9.27521475 40.23844685 -9.19135628 37.56781423 -9.125 34.25 C-9.10695313 33.07953125 -9.08890625 31.9090625 -9.0703125 30.703125 C-9.04710937 29.81109375 -9.02390625 28.9190625 -9 28 C-10.13179688 28.03480469 -11.26359375 28.06960937 -12.4296875 28.10546875 C-13.91144353 28.13360336 -15.39321556 28.16090387 -16.875 28.1875 C-17.99455078 28.22520508 -17.99455078 28.22520508 -19.13671875 28.26367188 C-21.3046875 28.29296875 -21.3046875 28.29296875 -25 28 C-27.14915785 24.77626323 -27.38286803 23.73296326 -27 20 C-25 18 -25 18 -21.3046875 17.8046875 C-19.82799892 17.817991 -18.35137642 17.84185165 -16.875 17.875 C-16.12089844 17.88402344 -15.36679687 17.89304687 -14.58984375 17.90234375 C-12.72642746 17.9259313 -10.86317407 17.96180281 -9 18 C-9.04640625 16.87980469 -9.0928125 15.75960937 -9.140625 14.60546875 C-9.17814423 13.13283915 -9.21454423 11.66018073 -9.25 10.1875 C-9.30027344 9.08051758 -9.30027344 9.08051758 -9.3515625 7.95117188 C-9.45034942 2.4931945 -9.45034942 2.4931945 -7.15234375 -0.0234375 C-4.34489825 -1.2972331 -2.87469619 -1.01002839 0 0 Z " fill="#89A084" transform="translate(293,97)"/>
<path d="M0 0 C0.99 0.33 1.98 0.66 3 1 C5.0160103 7.04803089 4.31554657 13.29668761 2.359375 19.28515625 C-2.0276665 28.0466328 -11.28082322 36.69630377 -20 41 C-23.13564113 41.76524575 -25.74588314 41.94751424 -29 42 C-29.93213141 35.73960391 -30.20927172 30.97802937 -28 25 C-24.535 24.505 -24.535 24.505 -21 24 C-20.86851562 23.16275391 -20.86851562 23.16275391 -20.734375 22.30859375 C-17.85424273 13.25456092 -7.82266224 4.92537993 0 0 Z " fill="#9ABF93" transform="translate(243,191)"/>
<path d="M0 0 C3 1 3 1 4 3 C4.94498027 11.59568592 2.94644691 18.70940941 -2.1875 25.625 C-8.22339767 32.87312816 -14.98014202 38.8069997 -24 42 C-26.80078125 42.12890625 -26.80078125 42.12890625 -29 42 C-29.91397824 36.31302429 -29.91397824 31.68697571 -29 26 C-23.25 24 -23.25 24 -21 24 C-20.79890625 22.98292969 -20.5978125 21.96585938 -20.390625 20.91796875 C-19.05162894 16.25145003 -16.21165522 13.57667824 -12.75 10.3125 C-12.18925781 9.75755859 -11.62851563 9.20261719 -11.05078125 8.63085938 C-7.61089729 5.29027923 -4.1976136 2.34188894 0 0 Z " fill="#9BC094" transform="translate(243,99)"/>
<path d="M0 0 C1.32 0.66 2.64 1.32 4 2 C4.6992354 12.21660619 3.02383605 19.73312327 -3.625 27.6875 C-9.56877843 33.95346455 -17.33000006 40.78603774 -26.3125 41.125 C-27.199375 41.08375 -28.08625 41.0425 -29 41 C-29.05383848 38.54137599 -29.09359038 36.0839245 -29.125 33.625 C-29.14175781 32.92632812 -29.15851563 32.22765625 -29.17578125 31.5078125 C-29.19344267 29.67102514 -29.10303261 27.83398037 -29 26 C-27 24 -27 24 -24.125 23.3125 C-19.73567609 21.46898396 -19.03172174 19.21972976 -17 15 C-16.34 15 -15.68 15 -15 15 C-14.773125 14.443125 -14.54625 13.88625 -14.3125 13.3125 C-11.02219712 7.51529969 -5.3015187 3.82814378 0 0 Z " fill="#9ABF94" transform="translate(243,145)"/>
<path d="M0 0 C1.32 0.66 2.64 1.32 4 2 C4.6385363 11.32972482 3.34876702 19.03524067 -2.5 26.5625 C-8.50646525 33.01445756 -17.21087628 40.7815425 -26.3125 41.125 C-27.199375 41.08375 -28.08625 41.0425 -29 41 C-29.95974543 35.28043602 -30.59245578 30.40094954 -28 25 C-26.30267646 24.28190158 -24.59779833 23.57363977 -22.8515625 22.984375 C-19.73356326 21.32670452 -18.46221185 18.42770284 -16.6640625 15.48046875 C-12.40677442 9.13451117 -6.5645254 3.87138677 0 0 Z " fill="#9ABF94" transform="translate(243,238)"/>
<path d="M0 0 C3.40667322 0.44824648 5.07914607 1.05276405 8 3 C8 3.66 8 4.32 8 5 C8.59039062 5.26554688 9.18078125 5.53109375 9.7890625 5.8046875 C14.99212523 8.61765074 18.71049493 13.48153085 22.0625 18.25 C24.59344727 21.78107965 26.99683503 23.23115966 31 25 C32.08489672 28.25469015 32.13323992 30.70543209 32.125 34.125 C32.12886719 35.73761719 32.12886719 35.73761719 32.1328125 37.3828125 C32 40 32 40 31 41 C24.87311236 40.74443998 21.18953065 39.39716107 16.4375 35.4375 C15.87812744 34.98568359 15.31875488 34.53386719 14.74243164 34.06835938 C7.26155394 27.90188091 1.34900724 21.67904187 -1 12 C-1.33206857 8.29980731 -1.4091729 4.69597161 -1 1 C-0.67 0.67 -0.34 0.34 0 0 Z " fill="#9ABF93" transform="translate(165,192)"/>
<path d="M0 0 C5.66663549 -0.51150161 8.10449078 1.87303699 12.3125 5.3671875 C15.78363095 8.76768498 18.62433937 12.49216788 21.33666992 16.51831055 C23.50838484 19.60599317 25.26061565 21.32029422 28.73828125 22.63671875 C32 24 32 24 32.93359375 25.828125 C32.95550781 26.54484375 32.97742188 27.2615625 33 28 C33.03222656 28.92296875 33.06445312 29.8459375 33.09765625 30.796875 C33.08605469 31.77140625 33.07445312 32.7459375 33.0625 33.75 C33.05347656 34.73484375 33.04445312 35.7196875 33.03515625 36.734375 C33.02355469 37.48203125 33.01195312 38.2296875 33 39 C29.3718439 40.10422142 27.22083343 40.4973011 23.66015625 39.046875 C12.99172102 32.9121034 3.69764118 25.09069972 0 13 C-0.43163198 8.60861381 -0.38254012 4.39212733 0 0 Z " fill="#9ABF93" transform="translate(164,239)"/>
<path d="M0 0 C2.03125 -0.41015625 2.03125 -0.41015625 5 0 C7.76450293 1.90797295 10.10208423 4.21919024 12.5 6.5625 C13.15097656 7.17158203 13.80195313 7.78066406 14.47265625 8.40820312 C17.5815826 11.37581465 20.31744214 14.29876421 22.734375 17.859375 C24.96362376 20.949575 25.44882758 21.44394186 28.75 22.6875 C29.8225 23.120625 30.895 23.55375 32 24 C33.26215939 27.13412613 33.13392717 30.34427648 33.125 33.6875 C33.12886719 35.14736328 33.12886719 35.14736328 33.1328125 36.63671875 C33 39 33 39 32 40 C26.54674038 40.97879019 23.08289266 38.74670324 18.65625 35.88671875 C10.0072046 29.74335268 3.18435272 23.41232795 0 13 C-0.43163198 8.60861381 -0.38254012 4.39212733 0 0 Z " fill="#9BBF94" transform="translate(164,146)"/>
<path d="M0 0 C9.84549885 3.38057836 16.42420331 12.4065996 22.578125 20.3984375 C25.18753902 23.2014532 27.55346513 24.4130362 31 26 C32.44207941 28.88415883 32.09394887 31.41721528 32.0625 34.625 C32.05347656 35.81351563 32.04445312 37.00203125 32.03515625 38.2265625 C32.02355469 39.14179688 32.01195312 40.05703125 32 41 C27.61055114 42.13130125 25.35058034 41.71007253 21.3125 39.4921875 C11.6205387 33.23825301 2.82925217 25.80242056 -0.5390625 14.44921875 C-1.37661049 9.9988578 -1.41821735 5.50387911 -1 1 C-0.67 0.67 -0.34 0.34 0 0 Z " fill="#9ABE93" transform="translate(165,99)"/>
<path d="M0 0 C0.80824219 0.10183594 1.61648437 0.20367187 2.44921875 0.30859375 C3.06410156 0.39238281 3.67898437 0.47617187 4.3125 0.5625 C5.49705538 4.80668543 5.51132522 8.96448042 5.55078125 13.34375 C5.558853 14.19424927 5.56692474 15.04474854 5.57524109 15.92102051 C5.58904656 17.71636943 5.59978447 19.51174421 5.60766602 21.30712891 C5.6192225 23.14412109 5.63973177 24.98107876 5.66918945 26.81787109 C5.71176156 29.47256274 5.72801679 32.12625989 5.73828125 34.78125 C5.75578934 35.60113403 5.77329742 36.42101807 5.79133606 37.26574707 C5.77752034 40.89064951 5.63189853 43.11023895 3.51245117 46.11132812 C1.3125 47.5625 1.3125 47.5625 -2.3125 47.5625 C-5.6875 46.5625 -5.6875 46.5625 -6.88424683 44.76934814 C-7.73602722 42.42917689 -7.92950139 40.73473029 -7.91455078 38.25292969 C-7.91439972 37.41236023 -7.91424866 36.57179077 -7.91409302 35.70574951 C-7.90377045 34.80769592 -7.89344788 33.90964233 -7.8828125 32.984375 C-7.8799826 32.0578009 -7.87715271 31.13122681 -7.87423706 30.17657471 C-7.86305611 27.22175091 -7.83795527 24.26723195 -7.8125 21.3125 C-7.80246751 19.30729605 -7.79334213 17.30208734 -7.78515625 15.296875 C-7.76312358 10.38529949 -7.72860795 5.47395141 -7.6875 0.5625 C-4.59271121 -0.46909626 -3.16118607 -0.41232862 0 0 Z " fill="#6B7B5E" transform="translate(206.6875,297.4375)"/>
<path d="M0 0 C2 1.625 2 1.625 3 4 C2.93439072 7.739729 2.76345433 10.0603639 0.375 13 C-3.11581787 14.46981805 -5.39148956 13.98413921 -9 13 C-11 11.375 -11 11.375 -12 9 C-11.93439072 5.260271 -11.76345433 2.9396361 -9.375 0 C-5.88418213 -1.46981805 -3.60851044 -0.98413921 0 0 Z " fill="#141B1F" transform="translate(375,279)"/>
<path d="M0 0 C2 1.625 2 1.625 3 4 C2.93439072 7.739729 2.76345433 10.0603639 0.375 13 C-3.11581787 14.46981805 -5.39148956 13.98413921 -9 13 C-11 11.375 -11 11.375 -12 9 C-11.93439072 5.260271 -11.76345433 2.9396361 -9.375 0 C-5.88418213 -1.46981805 -3.60851044 -0.98413921 0 0 Z " fill="#141B1F" transform="translate(46,279)"/>
<path d="M0 0 C2 1.625 2 1.625 3 4 C2.93439072 7.739729 2.76345433 10.0603639 0.375 13 C-3.11581787 14.46981805 -5.39148956 13.98413921 -9 13 C-11 11.375 -11 11.375 -12 9 C-11.93439072 5.260271 -11.76345433 2.9396361 -9.375 0 C-5.88418213 -1.46981805 -3.60851044 -0.98413921 0 0 Z " fill="#141B1F" transform="translate(385,259)"/>
<path d="M0 0 C2 1.625 2 1.625 3 4 C2.93439072 7.739729 2.76345433 10.0603639 0.375 13 C-3.11581787 14.46981805 -5.39148956 13.98413921 -9 13 C-11 11.375 -11 11.375 -12 9 C-11.93439072 5.260271 -11.76345433 2.9396361 -9.375 0 C-5.88418213 -1.46981805 -3.60851044 -0.98413921 0 0 Z " fill="#141B1F" transform="translate(37,259)"/>
<path d="M0 0 C2 1.625 2 1.625 3 4 C2.93439072 7.739729 2.76345433 10.0603639 0.375 13 C-3.11581787 14.46981805 -5.39148956 13.98413921 -9 13 C-11 11.375 -11 11.375 -12 9 C-11.93439072 5.260271 -11.76345433 2.9396361 -9.375 0 C-5.88418213 -1.46981805 -3.60851044 -0.98413921 0 0 Z " fill="#141B1F" transform="translate(390,238)"/>
<path d="M0 0 C2 1.625 2 1.625 3 4 C2.93439072 7.739729 2.76345433 10.0603639 0.375 13 C-3.11581787 14.46981805 -5.39148956 13.98413921 -9 13 C-11 11.375 -11 11.375 -12 9 C-11.93439072 5.260271 -11.76345433 2.9396361 -9.375 0 C-5.88418213 -1.46981805 -3.60851044 -0.98413921 0 0 Z " fill="#141B1F" transform="translate(31,238)"/>
<path d="M0 0 C2 1.625 2 1.625 3 4 C2.93439072 7.739729 2.76345433 10.0603639 0.375 13 C-3.11581787 14.46981805 -5.39148956 13.98413921 -9 13 C-11 11.375 -11 11.375 -12 9 C-11.93439072 5.260271 -11.76345433 2.9396361 -9.375 0 C-5.88418213 -1.46981805 -3.60851044 -0.98413921 0 0 Z " fill="#141B1F" transform="translate(386,142)"/>
<path d="M0 0 C2 1.625 2 1.625 3 4 C2.93439072 7.739729 2.76345433 10.0603639 0.375 13 C-3.11581787 14.46981805 -5.39148956 13.98413921 -9 13 C-11 11.375 -11 11.375 -12 9 C-11.93439072 5.260271 -11.76345433 2.9396361 -9.375 0 C-5.88418213 -1.46981805 -3.60851044 -0.98413921 0 0 Z " fill="#141B1F" transform="translate(36,142)"/>
<path d="M0 0 C2 1.625 2 1.625 3 4 C2.93439072 7.739729 2.76345433 10.0603639 0.375 13 C-3.11581787 14.46981805 -5.39148956 13.98413921 -9 13 C-11 11.375 -11 11.375 -12 9 C-11.93439072 5.260271 -11.76345433 2.9396361 -9.375 0 C-5.88418213 -1.46981805 -3.60851044 -0.98413921 0 0 Z " fill="#131B1F" transform="translate(56,99)"/>
<path d="M0 0 C3.63 0 7.26 0 11 0 C11.02692484 2.29160319 11.04636124 4.58329546 11.0625 6.875 C11.07410156 8.15117188 11.08570313 9.42734375 11.09765625 10.7421875 C11 14 11 14 10 16 C4.04296875 16.390625 4.04296875 16.390625 2 16 C0.21875 14.375 0.21875 14.375 -1 12 C-1.07421875 8.984375 -1.07421875 8.984375 -0.6875 5.75 C-0.56761719 4.67234375 -0.44773438 3.5946875 -0.32421875 2.484375 C-0.21722656 1.66453125 -0.11023438 0.8446875 0 0 Z " fill="#6B7B5E" transform="translate(200,98)"/>
<path d="M0 0 C0.33 0 0.66 0 1 0 C2 6.625 2 6.625 2 10 C0.68 9.67 -0.64 9.34 -2 9 C-2 7.68 -2 6.36 -2 5 C-1.34 5 -0.68 5 0 5 C0 3.35 0 1.7 0 0 Z " fill="#8AA488" transform="translate(287,132)"/>
</svg>
